<?xml version="1.0" encoding="UTF-8"?><svg xmlns="http://www.w3.org/2000/svg" viewBox="0 0 494.02 495.83"><defs><style>.cls-1{fill:#3ea4a7;}.cls-2{opacity:.23;}.cls-2,.cls-3{fill:#38357a;}.cls-4{fill:#fff;}.cls-3{opacity:.56;}.cls-5{opacity:.49;}.cls-5,.cls-6{fill:#29235c;}.cls-6{opacity:.22;}</style></defs><g id="DobleL"><circle class="cls-1" cx="247" cy="247" r="247"/><path class="cls-5" d="M401.94,320.51l-283.91,34.53,82.84,134.64c100.23,21.8,187.72-25.52,245.18-96.39l-44.11-72.79Z"/><polygon class="cls-6" points="161.36 121.02 276 123.06 397.78 314.04 153.7 314.04 161.36 121.02"/><path class="cls-4" d="M132.72,120.2h25.32c8.67,0,15.69,7.03,15.69,15.69v179.11h106.86c8.83,0,15.99,7.16,15.99,15.99v18.52c0,8.67-7.03,15.69-15.69,15.69h-148.17c-8.67,0-15.69-7.03-15.69-15.69v-213.62c0-8.67,7.03-15.69,15.69-15.69Z"/><path class="cls-4" d="M241.99,120.2h25.32c8.67,0,15.69,7.03,15.69,15.69v179.11h106.86c8.83,0,15.99,7.16,15.99,15.99v18.52c0,8.67-7.03,15.69-15.69,15.69h-148.17c-8.67,0-15.69-7.03-15.69-15.69v-213.62c0-8.67,7.03-15.69,15.69-15.69Z"/></g><g id="DobleL_copia"><path class="cls-1" d="M493.99,247c2.01,137.73-109.75,247.54-247,247C110.58,493.44,0,383.41,0,247S110.58,0,247,0s245,110.6,247,247Z"/><polygon class="cls-2" points="161.81 143.72 166.5 359.48 404.4 274.89 269.69 75.68 161.81 143.72"/><path class="cls-3" d="M467.18,360.47l-65.5-86.28-175.38,32.8,15.49,34.15-128.64,24.06,52.13,114.95c41.23,18.07,103.76,20.74,146.23,6.89,56-14.96,121.66-55.93,155.67-126.57Z"/><path class="cls-4" d="M128.9,132.45h25.32c8.67,0,15.69,7.03,15.69,15.69v179.11h106.86c8.83,0,15.99,7.16,15.99,15.99v18.52c0,8.67-7.03,15.69-15.69,15.69h-148.17c-9.11-.78-16.53-8.5-15.69-15.69v-213.62c0-8.67,7.03-15.69,15.69-15.69Z"/><path class="cls-4" d="M241.99,72.86h25.32c8.67,0,15.69,7.03,15.69,15.69v179.11h106.86c8.83,0,15.99,7.16,15.99,15.99v18.52c0,8.67-7.03,15.69-15.69,15.69h-148.17c-8.67,0-15.69-7.03-15.69-15.69V88.56c0-8.67,7.03-15.69,15.69-15.69Z"/></g></svg>
